PathFileType  4	(X/Y/Z) C:\Users\antoi\Documents\MyRepositories\mobilecap\ResultsAnalysis
DataRate	CameraRate	NumFrames	NumMarkers	Units	OrigDataRate	OrigDataStartFrame	OrigNumFrames
100.0	100.0	4	51	mm	100.0	233	1861
Frame#	Time	r_knee			r_shank_antsup			r_ankle			r_calc			r_5meta			r_toe			L_knee			L_shank_antsup			L_ankle			L_calc			L_5meta			L_toe			r_sh2			r_sh3			r_sh4			L_sh2			L_sh3			r_thigh1			r_thigh2			r_thigh3			r_thigh4			r_thigh5			L_thigh1			L_thigh2			L_thigh3			L_thigh4			r.ASIS			r.PSIS			L.ASIS			L.PSIS			C7			R_Shoulder			L_Shoulder			R_Sternum			L_Sternum			R_humerus			R_elbow_med			R_elbow_lat			R_forearm			R_wrist_radius			R_wrist_ulna			L_humerus			L_elbow_med			L_elbow_lat			L_forearm			L_wrist_radius			L_wrist_ulna			R_HJC			L_HJC			R_HJC_reg			L_HJC_reg			
		X1	Y1	Z1	X2	Y2	Z2	X3	Y3	Z3	X4	Y4	Z4	X5	Y5	Z5	X6	Y6	Z6	X7	Y7	Z7	X8	Y8	Z8	X9	Y9	Z9	X10	Y10	Z10	X11	Y11	Z11	X12	Y12	Z12	X13	Y13	Z13	X14	Y14	Z14	X15	Y15	Z15	X16	Y16	Z16	X17	Y17	Z17	X18	Y18	Z18	X19	Y19	Z19	X20	Y20	Z20	X21	Y21	Z21	X22	Y22	Z22	X23	Y23	Z23	X24	Y24	Z24	X25	Y25	Z25	X26	Y26	Z26	X27	Y27	Z27	X28	Y28	Z28	X29	Y29	Z29	X30	Y30	Z30	X31	Y31	Z31	X32	Y32	Z32	X33	Y33	Z33	X34	Y34	Z34	X35	Y35	Z35	X36	Y36	Z36	X37	Y37	Z37	X38	Y38	Z38	X39	Y39	Z39	X40	Y40	Z40	X41	Y41	Z41	X42	Y42	Z42	X43	Y43	Z43	X44	Y44	Z44	X45	Y45	Z45	X46	Y46	Z46	X47	Y47	Z47	X48	Y48	Z48	X49	Y49	Z49	X50	Y50	Z50	X51	Y51	Z51	

233	2.32000000	-182.51866	477.87208	-439.88572	-152.94349	416.03970	-433.46970	-222.92280	84.06599	-427.85962	-276.90567	55.24054	-472.00957	-115.29280	41.93246	-400.59405	-77.18608	60.73662	-453.44327	-163.94191	476.45161	-755.49320	-132.33682	390.57798	-750.31674	-210.81918	93.63893	-775.94940	-268.83333	53.08441	-732.64018	-108.82048	44.03532	-803.78048	-59.08867	60.08849	-748.14014	-175.48788	305.95697	-417.56119	-224.78264	435.47006	-415.17966	-254.59124	320.58386	-405.87335	-209.00594	417.59532	-790.19311	-225.49465	296.88005	-806.38452	-133.15921	733.27733	-403.08929	-129.51755	620.19285	-415.33508	-236.39398	614.42911	-442.83974	-244.76539	728.54587	-421.94360	-191.27639	595.35825	-416.42822	-112.37757	759.00857	-792.63136	-104.13640	621.01258	-770.78425	-223.88419	750.93425	-798.47875	-218.14888	618.48495	-758.22703	-89.11968	937.98998	-484.05835	-293.72184	950.88208	-568.58779	-78.68688	944.89983	-707.17997	-287.60994	952.60300	-650.05602	-216.47813	1400.32464	-588.96467	-160.02843	1368.09177	-441.15720	-150.71950	1368.38640	-730.45285	-91.92729	1340.87745	-561.39923	-94.37883	1337.13396	-599.06709	-125.01514	1264.91269	-372.14664	-144.36156	1043.52872	-361.71183	-124.37647	1071.63016	-300.30893	-33.07358	1096.50017	-301.51476	99.72552	1104.05424	-334.38515	104.23927	1069.78683	-319.76593	-126.52596	1273.96623	-805.80705	-100.77570	1047.42093	-821.98922	-93.69142	1087.63075	-880.85103	10.17789	1101.14971	-886.46630	133.11441	1113.54699	-866.25297	134.67309	1073.49495	-873.61358	-161.27525	843.96634	-497.91295	-150.78115	852.44984	-704.98113	-153.50497	865.16730	-521.16096	-142.47349	868.27486	-668.20655	
234	2.33000000	-181.96221	477.71047	-439.80757	-152.25883	415.98846	-433.34975	-222.84523	84.14848	-427.81688	-276.87331	55.30538	-472.00694	-115.25651	41.94119	-400.59828	-77.13409	60.67911	-453.46372	-163.38026	476.26215	-755.38575	-131.75546	390.44410	-750.20205	-210.75698	93.70281	-775.93036	-268.82263	53.14583	-732.58623	-108.79812	44.03845	-803.78201	-59.02837	60.02721	-748.13529	-175.00110	305.99148	-417.35136	-224.74715	434.77474	-414.89733	-254.11150	320.39898	-405.74569	-208.33041	417.43404	-790.05126	-224.84095	296.87980	-806.40807	-133.53285	733.25594	-402.91470	-129.57647	620.17519	-415.28764	-236.68723	614.35864	-442.08472	-245.30768	728.22307	-421.67157	-191.25974	595.21810	-416.26727	-113.03573	758.96393	-792.46648	-104.25866	621.06122	-770.79970	-224.61547	750.54484	-798.38954	-218.28406	618.09993	-758.31739	-90.05779	937.85483	-484.10235	-294.70735	951.34676	-568.41118	-79.86994	944.69046	-706.90664	-288.70714	953.11477	-649.61893	-214.91872	1400.70027	-588.79296	-158.40731	1368.23381	-441.00989	-149.44369	1368.45840	-730.29907	-90.20287	1340.53479	-561.46138	-92.51570	1336.98136	-599.05436	-123.71534	1265.02249	-371.96785	-143.41423	1043.91133	-361.04809	-123.39157	1071.78062	-300.03432	-32.13480	1096.41289	-301.35202	100.67465	1103.75521	-334.48975	105.19956	1069.66797	-319.55935	-125.63708	1273.96391	-805.56449	-101.21571	1047.23459	-821.65683	-93.27365	1087.52900	-880.57845	10.70740	1100.68301	-886.31386	133.75514	1112.63515	-865.96438	135.09651	1072.62943	-873.39979	-162.54796	844.04439	-497.72582	-152.23665	852.48947	-704.80477	-154.66096	865.21344	-521.13496	-143.81135	868.41251	-667.97328	
235	2.34000000	-181.26152	477.47708	-439.72562	-151.47733	415.85069	-433.16479	-222.79951	84.18480	-427.81212	-276.83394	55.37283	-471.98238	-115.25691	41.94967	-400.64653	-77.08301	60.63159	-453.45895	-162.64221	476.16365	-755.48283	-131.10180	390.32047	-750.01361	-210.69216	93.76579	-775.89103	-268.81273	53.20974	-732.53617	-108.79693	44.00812	-803.70523	-59.03669	59.93048	-748.10840	-174.32816	305.87262	-417.21138	-224.13564	434.27128	-414.58950	-253.45047	320.43328	-405.60780	-207.51079	417.26499	-789.96081	-224.28654	296.86609	-806.48002	-134.09771	733.04902	-403.12639	-129.71381	620.17018	-415.11450	-236.82840	614.03697	-441.67865	-245.89413	727.87753	-421.37786	-191.18590	595.06756	-415.91358	-113.76139	758.99867	-792.30483	-104.38907	621.16092	-770.87479	-225.36627	750.18851	-798.55696	-218.39783	617.71588	-758.40948	-91.09102	937.68838	-484.22082	-295.75064	951.87394	-568.22487	-81.23278	944.59731	-706.97130	-289.90097	953.49640	-649.55973	-213.24237	1401.07211	-588.59304	-156.69499	1368.43234	-440.87255	-148.06736	1368.45540	-729.97842	-88.52782	1340.74293	-561.50573	-93.70157	1334.65655	-597.99789	-122.24124	1265.14590	-371.76671	-142.75262	1044.00884	-360.61581	-122.38701	1071.94831	-299.69875	-31.10824	1096.32575	-301.17996	101.68244	1103.39773	-334.53301	106.19377	1068.84113	-319.27834	-124.60098	1274.05412	-805.34044	-101.31703	1047.15076	-821.45536	-92.89488	1087.49763	-880.47263	11.21089	1100.12769	-885.97932	134.33096	1111.64632	-865.64994	135.52323	1071.68699	-873.18994	-163.86688	844.11259	-497.76308	-153.78897	852.57082	-704.85294	-155.99597	865.49895	-520.98972	-145.43569	868.42978	-667.81035	
236	2.35000000	-180.49120	477.30162	-439.52985	-150.62919	415.56890	-433.05191	-222.77255	84.19769	-427.81396	-276.77046	55.44714	-471.97992	-115.26241	41.94728	-400.69125	-77.06303	60.60415	-453.47936	-161.83741	476.15746	-755.66395	-130.36650	390.21895	-749.89363	-210.62038	93.81817	-775.80781	-268.76930	53.31103	-732.48471	-108.80321	43.95727	-803.58006	-59.00612	59.83943	-748.08512	-173.56863	305.66802	-417.21138	-223.15396	433.78219	-414.50431	-252.60890	320.56931	-405.37701	-206.58957	417.20036	-790.00662	-223.76217	296.79384	-806.54799	-134.74783	732.91276	-403.41422	-129.84735	620.28713	-414.76331	-236.85391	613.54449	-441.46913	-246.47908	727.44064	-421.16630	-191.16123	594.79955	-415.65339	-114.59865	759.08058	-792.11237	-104.52261	621.31242	-771.03653	-226.10824	749.79875	-798.82748	-218.49348	617.30838	-758.52885	-92.26326	937.52465	-484.28024	-296.88682	952.46583	-567.96934	-82.71301	944.61862	-707.18395	-291.24453	953.85645	-649.60993	-211.50874	1401.43726	-588.28625	-154.94649	1368.59479	-440.72851	-146.61079	1368.49875	-729.70828	-87.12741	1340.98167	-561.38475	-94.43650	1332.85084	-597.19243	-120.64861	1265.21968	-371.69774	-142.10018	1043.95138	-360.32331	-121.37110	1072.06898	-299.36478	-29.97732	1096.23884	-300.96852	102.75022	1102.99836	-334.43042	107.18308	1067.45705	-319.03354	-123.52274	1274.22928	-805.26017	-100.66952	1047.23584	-821.45567	-92.54444	1087.40303	-880.31757	11.69520	1099.62669	-885.63609	134.84477	1110.57810	-865.31272	135.90784	1070.59093	-872.99373	-165.28334	844.19716	-497.86305	-155.45613	852.72892	-704.96193	-157.45711	865.91028	-520.68050	-147.30093	868.41317	-667.63444	
